<mxfile host="Electron" modified="2025-02-14T16:55:54.523Z" agent="Mozilla/5.0 (Windows NT 10.0; Win64; x64) AppleWebKit/537.36 (KHTML, like Gecko) draw.io/22.0.3 Chrome/114.0.5735.289 Electron/25.8.4 Safari/537.36" etag="q8FyLwa4n6YDAgw7i-Iq" version="22.0.3" type="device">
  <diagram name="P치gina-1" id="9jobSPNPOx5KcehDaBIN">
    <mxGraphModel dx="1050" dy="621" grid="1" gridSize="10" guides="1" tooltips="1" connect="1" arrows="1" fold="1" page="1" pageScale="1" pageWidth="827" pageHeight="1169" math="0" shadow="0">
      <root>
        <mxCell id="0" />
        <mxCell id="1" parent="0" />
        <mxCell id="DOIb54zDDeBc5l1PFzPn-20" style="edgeStyle=orthogonalEdgeStyle;rounded=0;orthogonalLoop=1;jettySize=auto;html=1;entryX=0;entryY=0.5;entryDx=0;entryDy=0;" edge="1" parent="1" source="DOIb54zDDeBc5l1PFzPn-1" target="DOIb54zDDeBc5l1PFzPn-5">
          <mxGeometry relative="1" as="geometry" />
        </mxCell>
        <mxCell id="DOIb54zDDeBc5l1PFzPn-21" style="edgeStyle=orthogonalEdgeStyle;rounded=0;orthogonalLoop=1;jettySize=auto;html=1;entryX=0;entryY=0.5;entryDx=0;entryDy=0;" edge="1" parent="1" source="DOIb54zDDeBc5l1PFzPn-1" target="DOIb54zDDeBc5l1PFzPn-10">
          <mxGeometry relative="1" as="geometry" />
        </mxCell>
        <mxCell id="DOIb54zDDeBc5l1PFzPn-22" style="edgeStyle=orthogonalEdgeStyle;rounded=0;orthogonalLoop=1;jettySize=auto;html=1;entryX=0;entryY=0.75;entryDx=0;entryDy=0;" edge="1" parent="1" source="DOIb54zDDeBc5l1PFzPn-1" target="DOIb54zDDeBc5l1PFzPn-15">
          <mxGeometry relative="1" as="geometry" />
        </mxCell>
        <mxCell id="DOIb54zDDeBc5l1PFzPn-1" value="&amp;lt;&amp;lt;Admin&amp;gt;&amp;gt;" style="shape=umlActor;verticalLabelPosition=bottom;verticalAlign=top;html=1;outlineConnect=0;" vertex="1" parent="1">
          <mxGeometry x="40" y="250" width="30" height="60" as="geometry" />
        </mxCell>
        <mxCell id="DOIb54zDDeBc5l1PFzPn-5" value="Gesti칩n de clientes" style="swimlane;whiteSpace=wrap;html=1;" vertex="1" parent="1">
          <mxGeometry x="170" y="50" width="200" height="230" as="geometry" />
        </mxCell>
        <mxCell id="DOIb54zDDeBc5l1PFzPn-6" value="Obtener Clientes" style="ellipse;whiteSpace=wrap;html=1;" vertex="1" parent="DOIb54zDDeBc5l1PFzPn-5">
          <mxGeometry x="10" y="30" width="120" height="40" as="geometry" />
        </mxCell>
        <mxCell id="DOIb54zDDeBc5l1PFzPn-7" value="Crear Clientes" style="ellipse;whiteSpace=wrap;html=1;" vertex="1" parent="DOIb54zDDeBc5l1PFzPn-5">
          <mxGeometry x="10" y="80" width="120" height="40" as="geometry" />
        </mxCell>
        <mxCell id="DOIb54zDDeBc5l1PFzPn-8" value="Actualizar Clientes" style="ellipse;whiteSpace=wrap;html=1;" vertex="1" parent="DOIb54zDDeBc5l1PFzPn-5">
          <mxGeometry x="10" y="130" width="120" height="40" as="geometry" />
        </mxCell>
        <mxCell id="DOIb54zDDeBc5l1PFzPn-9" value="Borrar Clientes" style="ellipse;whiteSpace=wrap;html=1;" vertex="1" parent="DOIb54zDDeBc5l1PFzPn-5">
          <mxGeometry x="10" y="180" width="120" height="40" as="geometry" />
        </mxCell>
        <mxCell id="DOIb54zDDeBc5l1PFzPn-10" value="Gesti칩n de empresas" style="swimlane;whiteSpace=wrap;html=1;" vertex="1" parent="1">
          <mxGeometry x="170" y="300" width="200" height="230" as="geometry" />
        </mxCell>
        <mxCell id="DOIb54zDDeBc5l1PFzPn-11" value="Obtener&amp;nbsp;empresas" style="ellipse;whiteSpace=wrap;html=1;" vertex="1" parent="DOIb54zDDeBc5l1PFzPn-10">
          <mxGeometry x="10" y="30" width="120" height="40" as="geometry" />
        </mxCell>
        <mxCell id="DOIb54zDDeBc5l1PFzPn-12" value="Crear&amp;nbsp;empresas" style="ellipse;whiteSpace=wrap;html=1;" vertex="1" parent="DOIb54zDDeBc5l1PFzPn-10">
          <mxGeometry x="10" y="80" width="120" height="40" as="geometry" />
        </mxCell>
        <mxCell id="DOIb54zDDeBc5l1PFzPn-13" value="Actualizar&amp;nbsp;empresas" style="ellipse;whiteSpace=wrap;html=1;" vertex="1" parent="DOIb54zDDeBc5l1PFzPn-10">
          <mxGeometry x="10" y="130" width="120" height="40" as="geometry" />
        </mxCell>
        <mxCell id="DOIb54zDDeBc5l1PFzPn-14" value="Borrar&amp;nbsp;empresas" style="ellipse;whiteSpace=wrap;html=1;" vertex="1" parent="DOIb54zDDeBc5l1PFzPn-10">
          <mxGeometry x="10" y="180" width="120" height="40" as="geometry" />
        </mxCell>
        <mxCell id="DOIb54zDDeBc5l1PFzPn-15" value="Gesti칩n de Usuarios" style="swimlane;whiteSpace=wrap;html=1;" vertex="1" parent="1">
          <mxGeometry x="170" y="560" width="200" height="180" as="geometry" />
        </mxCell>
        <mxCell id="DOIb54zDDeBc5l1PFzPn-16" value="Obtener&amp;nbsp;Usuarios" style="ellipse;whiteSpace=wrap;html=1;" vertex="1" parent="DOIb54zDDeBc5l1PFzPn-15">
          <mxGeometry x="10" y="30" width="120" height="40" as="geometry" />
        </mxCell>
        <mxCell id="DOIb54zDDeBc5l1PFzPn-17" value="Crear&amp;nbsp;Usuarios" style="ellipse;whiteSpace=wrap;html=1;" vertex="1" parent="DOIb54zDDeBc5l1PFzPn-15">
          <mxGeometry x="10" y="80" width="120" height="40" as="geometry" />
        </mxCell>
        <mxCell id="DOIb54zDDeBc5l1PFzPn-19" value="Borrar&amp;nbsp;Usuarios" style="ellipse;whiteSpace=wrap;html=1;" vertex="1" parent="DOIb54zDDeBc5l1PFzPn-15">
          <mxGeometry x="10" y="130" width="120" height="40" as="geometry" />
        </mxCell>
      </root>
    </mxGraphModel>
  </diagram>
</mxfile>
